<svg xmlns="http://www.w3.org/2000/svg" width="569.204" height="147.937" viewBox="0 0 569.204 147.937" fill="none">
  <path d="M 57.487 147.728 L 72.485 106.816 L 85.894 106.816 L 70.664 147.728 L 57.487 147.728 Z" fill="rgb(10,11,53)" fill-rule="nonzero"></path>
  <path d="M 18.831 125.075 L 54.524 100.819 L 65.017 108.518 L 29.135 132.635 L 18.831 125.075 Z" fill="rgb(10,11,53)" fill-rule="nonzero"></path>
  <path d="M 0 84.134 L 42.903 85.621 L 46.573 96.781 L 3.599 95.069 L 0 84.134 Z" fill="rgb(10,11,53)" fill-rule="nonzero"></path>
  <path d="M 7.667 39.667 L 41.631 66.366 L 38.499 76.627 L 4.604 49.703 L 7.667 39.667 Z" fill="rgb(10,11,53)" fill-rule="nonzero"></path>
  <path d="M 38.926 7.825 L 51.18 49.669 L 44.276 54.973 L 32.205 12.982 L 38.926 7.825 Z" fill="rgb(10,11,53)" fill-rule="nonzero"></path>
  <path d="M 82.462 0 L 68.309 41.221 L 61.571 41.363 L 75.956 0.139 L 82.462 0 Z" fill="rgb(10,11,53)" fill-rule="nonzero"></path>
  <path d="M 122.402 18.925 L 87.235 43.958 L 83.258 41.17 L 118.618 16.271 L 122.402 18.925 Z" fill="rgb(10,11,53)" fill-rule="nonzero"></path>
  <path d="M 254.42 32.98 C 259.911 32.98 264.834 33.799 269.193 35.442 C 273.552 37.085 277.265 39.438 280.332 42.504 C 283.398 45.57 285.767 49.211 287.434 53.426 C 289.101 57.64 289.937 62.323 289.937 67.467 C 289.937 73.161 288.994 78.086 287.111 82.248 C 285.225 86.409 282.779 89.884 279.764 92.675 C 276.749 95.466 273.441 97.603 269.836 99.08 C 266.231 100.557 262.652 101.516 259.099 101.954 L 291.389 147.937 L 276.211 147.937 L 243.921 101.954 L 224.388 101.954 L 224.388 147.937 L 210.825 147.937 L 210.825 32.98 L 254.42 32.98 Z M 253.614 89.798 C 260.932 89.798 266.557 87.72 270.485 83.559 C 274.413 79.401 276.377 74.034 276.377 67.467 C 276.377 60.899 274.413 55.397 270.485 51.292 C 266.554 47.187 260.932 45.132 253.614 45.132 L 224.395 45.132 L 224.395 89.798 L 253.614 89.798 Z" fill="rgb(10,11,53)" fill-rule="nonzero"></path>
  <path d="M 298.85 45.132 L 298.85 32.98 L 385.224 32.98 L 385.224 45.132 L 348.739 45.132 L 348.739 147.933 L 335.339 147.933 L 335.339 45.132 L 298.85 45.132 Z" fill="rgb(10,11,53)" fill-rule="nonzero"></path>
  <path d="M 394.506 45.132 L 394.506 32.98 L 480.879 32.98 L 480.879 45.132 L 444.394 45.132 L 444.394 147.933 L 430.995 147.933 L 430.995 45.132 L 394.506 45.132 Z" fill="rgb(10,11,53)" fill-rule="nonzero"></path>
  <path d="M 511.245 32.98 L 526.422 32.98 L 569.204 147.933 L 555.645 147.933 L 545.153 119.032 L 492.521 119.032 L 482.028 147.933 L 468.469 147.933 L 511.251 32.98 L 511.245 32.98 Z M 540.468 107.041 L 519.32 48.415 L 518.514 48.415 L 497.362 107.041 L 540.468 107.041 Z" fill="rgb(10,11,53)" fill-rule="nonzero"></path>
  <path d="M 156.217 32.985 L 153.956 32.985 L 148.706 47.308 L 170.256 107.046 L 126.804 107.046 L 122.403 119.037 L 174.944 119.037 L 185.44 147.932 L 198.992 147.932 L 156.213 32.985 L 156.217 32.985 Z" fill="rgb(10,11,53)" fill-rule="nonzero"></path>
</svg>